ffmpeg started on 2025-06-06 at 15:51:26
Report written to "D:\Convert\FFMetrics\reports\ssim_report-6.txt"
Log level: 32
Command line:
ffmpeg -hide_banner -nostdin -i "G:\\\xc0\xed\xe8\xec\xe5\\\xce\xed\xe3\xee\xe8\xed\xe3\xe8\\!_36_\xce\xf1\xe5\xed\xfc_2024\\DreamCast\\\xcf\xe5\xf0\xe5\xf0\xee\xe6\xe4\xe5\xed\xe8\xe5 \xe2 \xe0\xf0\xe8\xf1\xf2\xee\xea\xf0\xe0\xf2\xe0 \xf1\xee \xf1\xef\xee\xf1\xee\xe1\xed\xee\xf1\xf2\xfc\xfe \xe0\xed\xe0\xeb\xe8\xe7\xe0\\\xd2\xc2-1\\[DC] Tensei Kizoku - Kantei Skill de Nariagaru - 06_Telegram_HEVC.mkv" -i "G:\\\xc0\xed\xe8\xec\xe5\\\xce\xed\xe3\xee\xe8\xed\xe3\xe8\\!_36_\xce\xf1\xe5\xed\xfc_2024\\DreamCast\\\xcf\xe5\xf0\xe5\xf0\xee\xe6\xe4\xe5\xed\xe8\xe5 \xe2 \xe0\xf0\xe8\xf1\xf2\xee\xea\xf0\xe0\xf2\xe0 \xf1\xee \xf1\xef\xee\xf1\xee\xe1\xed\xee\xf1\xf2\xfc\xfe \xe0\xed\xe0\xeb\xe8\xe7\xe0\\\xd2\xc2-1\\[DC] Tensei Kizoku - Kantei Skill de Nariagaru - 06_Telegram.mp4" -lavfi "[0:v]settb=AVTB,setpts=PTS-STARTPTS,format=pix_fmts=yuv420p10,fps=24000/1001,scale=1920:1080:flags=bicubic[main];[1:v]settb=AVTB,setpts=PTS-STARTPTS,format=pix_fmts=yuv420p,fps=24000/1001,scale=1920:1080:flags=bicubic[ref];[main][ref]ssim=eof_action=endall:stats_file='D\\:/Convert/FFMetrics/logs/ssim_logfile-6.txt'" -f null -
Input #0, matroska,webm, from 'G:\Аниме\Онгоинги\!_36_Осень_2024\DreamCast\Перерождение в аристократа со способностью анализа\ТВ-1\[DC] Tensei Kizoku - Kantei Skill de Nariagaru - 06_Telegram_HEVC.mkv':
  Metadata:
    COMPATIBLE_BRANDS: isomiso2avc1mp41
    MAJOR_BRAND     : isom
    MINOR_VERSION   : 512
    ENCODER         : Lavf61.7.100
  Duration: 00:23:48.31, start: -0.021000, bitrate: 952 kb/s
  Stream #0:0: Video: hevc (Main 10), yuv420p10le(tv, bt709, progressive), 1920x1080 [SAR 1:1 DAR 16:9], 23.98 fps, 23.98 tbr, 1k tbn (default)
      Metadata:
        HANDLER_NAME    : VideoHandler
        VENDOR_ID       : [0][0][0][0]
        ENCODER         : Lavc61.19.100 libx265
        BPS             : 756119
        DURATION        : 00:23:46.508708333
        NUMBER_OF_FRAMES: 34202
        NUMBER_OF_BYTES : 134826336
        _STATISTICS_WRITING_APP: mkvpropedit v66.0.0 ('Josie') 64-bit
        _STATISTICS_WRITING_DATE_UTC: 2025-06-02 07:39:36
        _STATISTICS_TAGS: BPS DURATION NUMBER_OF_FRAMES NUMBER_OF_BYTES
  Stream #0:1: Audio: aac (LC), 48000 Hz, stereo, fltp (default)
      Metadata:
        HANDLER_NAME    : SoundHandler
        VENDOR_ID       : [0][0][0][0]
        ENCODER         : Lavc61.19.100 aac
        BPS             : 193557
        DURATION        : 00:23:48.309000000
        NUMBER_OF_FRAMES: 66953
        NUMBER_OF_BYTES : 34557541
        _STATISTICS_WRITING_APP: mkvpropedit v66.0.0 ('Josie') 64-bit
        _STATISTICS_WRITING_DATE_UTC: 2025-06-02 07:39:36
        _STATISTICS_TAGS: BPS DURATION NUMBER_OF_FRAMES NUMBER_OF_BYTES
Input #1, mov,mp4,m4a,3gp,3g2,mj2, from 'G:\Аниме\Онгоинги\!_36_Осень_2024\DreamCast\Перерождение в аристократа со способностью анализа\ТВ-1\[DC] Tensei Kizoku - Kantei Skill de Nariagaru - 06_Telegram.mp4':
  Metadata:
    major_brand     : isom
    minor_version   : 512
    compatible_brands: isomiso2avc1mp41
    encoder         : Lavf60.16.100
  Duration: 00:23:48.27, start: 0.000000, bitrate: 3511 kb/s
  Stream #1:0[0x1](und): Video: h264 (High) (avc1 / 0x31637661), yuv420p(tv, bt709, progressive), 1920x1080 [SAR 1:1 DAR 16:9], 3367 kb/s, 23.98 fps, 23.98 tbr, 24k tbn (default)
      Metadata:
        handler_name    : VideoHandler
        vendor_id       : [0][0][0][0]
        encoder         : Lavc60.31.102 h264_qsv
  Stream #1:1[0x2](und): Audio: aac (HE-AACv2) (mp4a / 0x6134706D), 48000 Hz, stereo, fltp, 144 kb/s (default)
      Metadata:
        handler_name    : SoundHandler
        vendor_id       : [0][0][0][0]
Stream mapping:
  Stream #0:0 (hevc) -> settb:default
  Stream #1:0 (h264) -> settb:default
  ssim:default -> Stream #0:0 (wrapped_avframe)
  Stream #0:1 -> #0:1 (aac (native) -> pcm_s16le (native))
Output #0, null, to 'pipe:':
  Metadata:
    COMPATIBLE_BRANDS: isomiso2avc1mp41
    MAJOR_BRAND     : isom
    MINOR_VERSION   : 512
    encoder         : Lavf61.7.100
  Stream #0:0: Video: wrapped_avframe, yuv420p10le(tv, bt709, progressive), 1920x1080 [SAR 1:1 DAR 16:9], q=2-31, 200 kb/s, 23.98 fps, 23.98 tbn
      Metadata:
        encoder         : Lavc61.19.100 wrapped_avframe
  Stream #0:1: Audio: pcm_s16le, 48000 Hz, stereo, s16, 1536 kb/s (default)
      Metadata:
        HANDLER_NAME    : SoundHandler
        VENDOR_ID       : [0][0][0][0]
        _STATISTICS_TAGS: BPS DURATION NUMBER_OF_FRAMES NUMBER_OF_BYTES
        BPS             : 193557
        DURATION        : 00:23:48.309000000
        NUMBER_OF_FRAMES: 66953
        NUMBER_OF_BYTES : 34557541
        _STATISTICS_WRITING_APP: mkvpropedit v66.0.0 ('Josie') 64-bit
        _STATISTICS_WRITING_DATE_UTC: 2025-06-02 07:39:36
        encoder         : Lavc61.19.100 pcm_s16le
frame=  185 fps=0.0 q=-0.0 size=N/A time=00:00:07.71 bitrate=N/A speed=14.9x    frame=  464 fps=453 q=-0.0 size=N/A time=00:00:19.35 bitrate=N/A speed=18.9x    frame=  740 fps=477 q=-0.0 size=N/A time=00:00:30.86 bitrate=N/A speed=19.9x    frame=  975 fps=473 q=-0.0 size=N/A time=00:00:40.66 bitrate=N/A speed=19.7x    frame= 1226 fps=474 q=-0.0 size=N/A time=00:00:51.13 bitrate=N/A speed=19.8x    frame= 1477 fps=476 q=-0.0 size=N/A time=00:01:01.60 bitrate=N/A speed=19.9x    frame= 1670 fps=463 q=-0.0 size=N/A time=00:01:09.65 bitrate=N/A speed=19.3x    frame= 1875 fps=454 q=-0.0 size=N/A time=00:01:18.20 bitrate=N/A speed=18.9x    frame= 2044 fps=440 q=-0.0 size=N/A time=00:01:25.25 bitrate=N/A speed=18.4x    frame= 2203 fps=428 q=-0.0 size=N/A time=00:01:31.88 bitrate=N/A speed=17.8x    frame= 2397 fps=422 q=-0.0 size=N/A time=00:01:39.97 bitrate=N/A speed=17.6x    frame= 2584 fps=417 q=-0.0 size=N/A time=00:01:47.77 bitrate=N/A speed=17.4x    frame= 2762 fps=412 q=-0.0 size=N/A time=00:01:55.19 bitrate=N/A speed=17.2x    frame= 2952 fps=409 q=-0.0 size=N/A time=00:02:03.12 bitrate=N/A speed=17.1x    frame= 3172 fps=411 q=-0.0 size=N/A time=00:02:12.29 bitrate=N/A speed=17.1x    frame= 3385 fps=410 q=-0.0 size=N/A time=00:02:21.18 bitrate=N/A speed=17.1x    frame= 3592 fps=410 q=-0.0 size=N/A time=00:02:29.81 bitrate=N/A speed=17.1x    frame= 3852 fps=415 q=-0.0 size=N/A time=00:02:40.66 bitrate=N/A speed=17.3x    frame= 4124 fps=421 q=-0.0 size=N/A time=00:02:52.00 bitrate=N/A speed=17.6x    frame= 4399 fps=426 q=-0.0 size=N/A time=00:03:03.47 bitrate=N/A speed=17.8x    frame= 4607 fps=426 q=-0.0 size=N/A time=00:03:12.15 bitrate=N/A speed=17.7x    frame= 4896 fps=431 q=-0.0 size=N/A time=00:03:24.20 bitrate=N/A speed=  18x    frame= 5158 fps=435 q=-0.0 size=N/A time=00:03:35.13 bitrate=N/A speed=18.1x    frame= 5416 fps=437 q=-0.0 size=N/A time=00:03:45.89 bitrate=N/A speed=18.2x    frame= 5690 fps=442 q=-0.0 size=N/A time=00:03:57.32 bitrate=N/A speed=18.4x    frame= 5937 fps=443 q=-0.0 size=N/A time=00:04:07.62 bitrate=N/A speed=18.5x    frame= 6170 fps=443 q=-0.0 size=N/A time=00:04:17.34 bitrate=N/A speed=18.5x    frame= 6432 fps=445 q=-0.0 size=N/A time=00:04:28.26 bitrate=N/A speed=18.6x    frame= 6653 fps=445 q=-0.0 size=N/A time=00:04:37.48 bitrate=N/A speed=18.5x    frame= 6895 fps=446 q=-0.0 size=N/A time=00:04:47.57 bitrate=N/A speed=18.6x    frame= 7175 fps=449 q=-0.0 size=N/A time=00:04:59.25 bitrate=N/A speed=18.7x    frame= 7412 fps=449 q=-0.0 size=N/A time=00:05:09.14 bitrate=N/A speed=18.7x    frame= 7699 fps=452 q=-0.0 size=N/A time=00:05:21.11 bitrate=N/A speed=18.9x    frame= 7959 fps=454 q=-0.0 size=N/A time=00:05:31.95 bitrate=N/A speed=18.9x    frame= 8196 fps=454 q=-0.0 size=N/A time=00:05:41.84 bitrate=N/A speed=18.9x    frame= 8456 fps=456 q=-0.0 size=N/A time=00:05:52.68 bitrate=N/A speed=  19x    frame= 8729 fps=458 q=-0.0 size=N/A time=00:06:04.07 bitrate=N/A speed=19.1x    frame= 8994 fps=459 q=-0.0 size=N/A time=00:06:15.12 bitrate=N/A speed=19.1x    frame= 9212 fps=458 q=-0.0 size=N/A time=00:06:24.21 bitrate=N/A speed=19.1x    frame= 9498 fps=460 q=-0.0 size=N/A time=00:06:36.14 bitrate=N/A speed=19.2x    frame= 9765 fps=462 q=-0.0 size=N/A time=00:06:47.28 bitrate=N/A speed=19.3x    frame=10032 fps=463 q=-0.0 size=N/A time=00:06:58.41 bitrate=N/A speed=19.3x    frame=10290 fps=464 q=-0.0 size=N/A time=00:07:09.17 bitrate=N/A speed=19.4x    frame=10540 fps=465 q=-0.0 size=N/A time=00:07:19.60 bitrate=N/A speed=19.4x    frame=10798 fps=465 q=-0.0 size=N/A time=00:07:30.36 bitrate=N/A speed=19.4x    frame=11067 fps=466 q=-0.0 size=N/A time=00:07:41.58 bitrate=N/A speed=19.4x    frame=11335 fps=467 q=-0.0 size=N/A time=00:07:52.76 bitrate=N/A speed=19.5x    frame=11595 fps=468 q=-0.0 size=N/A time=00:08:03.60 bitrate=N/A speed=19.5x    frame=11831 fps=468 q=-0.0 size=N/A time=00:08:13.45 bitrate=N/A speed=19.5x    frame=12058 fps=467 q=-0.0 size=N/A time=00:08:22.91 bitrate=N/A speed=19.5x    frame=12283 fps=467 q=-0.0 size=N/A time=00:08:32.30 bitrate=N/A speed=19.5x    frame=12554 fps=468 q=-0.0 size=N/A time=00:08:43.60 bitrate=N/A speed=19.5x    frame=12797 fps=468 q=-0.0 size=N/A time=00:08:53.74 bitrate=N/A speed=19.5x    frame=13023 fps=468 q=-0.0 size=N/A time=00:09:03.16 bitrate=N/A speed=19.5x    frame=13222 fps=466 q=-0.0 size=N/A time=00:09:11.46 bitrate=N/A speed=19.4x    frame=13484 fps=467 q=-0.0 size=N/A time=00:09:22.39 bitrate=N/A speed=19.5x    frame=13760 fps=468 q=-0.0 size=N/A time=00:09:33.90 bitrate=N/A speed=19.5x    frame=14025 fps=469 q=-0.0 size=N/A time=00:09:44.95 bitrate=N/A speed=19.5x    frame=14274 fps=469 q=-0.0 size=N/A time=00:09:55.34 bitrate=N/A speed=19.6x    frame=14522 fps=469 q=-0.0 size=N/A time=00:10:05.68 bitrate=N/A speed=19.6x    frame=14750 fps=469 q=-0.0 size=N/A time=00:10:15.19 bitrate=N/A speed=19.6x    frame=14988 fps=469 q=-0.0 size=N/A time=00:10:25.12 bitrate=N/A speed=19.5x    frame=15255 fps=469 q=-0.0 size=N/A time=00:10:36.26 bitrate=N/A speed=19.6x    frame=15517 fps=470 q=-0.0 size=N/A time=00:10:47.18 bitrate=N/A speed=19.6x    frame=15779 fps=471 q=-0.0 size=N/A time=00:10:58.11 bitrate=N/A speed=19.6x    frame=16040 fps=471 q=-0.0 size=N/A time=00:11:09.00 bitrate=N/A speed=19.7x    frame=16315 fps=472 q=-0.0 size=N/A time=00:11:20.47 bitrate=N/A speed=19.7x    frame=16574 fps=473 q=-0.0 size=N/A time=00:11:31.27 bitrate=N/A speed=19.7x    frame=16859 fps=474 q=-0.0 size=N/A time=00:11:43.16 bitrate=N/A speed=19.8x    frame=17142 fps=475 q=-0.0 size=N/A time=00:11:54.96 bitrate=N/A speed=19.8x    frame=17426 fps=476 q=-0.0 size=N/A time=00:12:06.80 bitrate=N/A speed=19.8x    frame=17711 fps=477 q=-0.0 size=N/A time=00:12:18.69 bitrate=N/A speed=19.9x    frame=17973 fps=477 q=-0.0 size=N/A time=00:12:29.62 bitrate=N/A speed=19.9x    frame=18271 fps=479 q=-0.0 size=N/A time=00:12:42.05 bitrate=N/A speed=  20x    frame=18546 fps=479 q=-0.0 size=N/A time=00:12:53.52 bitrate=N/A speed=  20x    frame=18816 fps=480 q=-0.0 size=N/A time=00:13:04.78 bitrate=N/A speed=  20x    frame=19103 fps=481 q=-0.0 size=N/A time=00:13:16.75 bitrate=N/A speed=20.1x    frame=19352 fps=481 q=-0.0 size=N/A time=00:13:27.13 bitrate=N/A speed=20.1x    frame=19626 fps=482 q=-0.0 size=N/A time=00:13:38.56 bitrate=N/A speed=20.1x    frame=19808 fps=480 q=-0.0 size=N/A time=00:13:46.15 bitrate=N/A speed=  20x    frame=20072 fps=480 q=-0.0 size=N/A time=00:13:57.16 bitrate=N/A speed=  20x    frame=20318 fps=480 q=-0.0 size=N/A time=00:14:07.42 bitrate=N/A speed=  20x    frame=20579 fps=481 q=-0.0 size=N/A time=00:14:18.31 bitrate=N/A speed=  20x    frame=20848 fps=481 q=-0.0 size=N/A time=00:14:29.53 bitrate=N/A speed=20.1x    frame=21114 fps=482 q=-0.0 size=N/A time=00:14:40.62 bitrate=N/A speed=20.1x    frame=21386 fps=482 q=-0.0 size=N/A time=00:14:51.97 bitrate=N/A speed=20.1x    frame=21639 fps=482 q=-0.0 size=N/A time=00:15:02.52 bitrate=N/A speed=20.1x    frame=21904 fps=482 q=-0.0 size=N/A time=00:15:13.57 bitrate=N/A speed=20.1x    frame=22159 fps=483 q=-0.0 size=N/A time=00:15:24.21 bitrate=N/A speed=20.1x    frame=22419 fps=483 q=-0.0 size=N/A time=00:15:35.05 bitrate=N/A speed=20.1x    frame=22650 fps=483 q=-0.0 size=N/A time=00:15:44.69 bitrate=N/A speed=20.1x    frame=22888 fps=482 q=-0.0 size=N/A time=00:15:54.62 bitrate=N/A speed=20.1x    frame=23164 fps=483 q=-0.0 size=N/A time=00:16:06.13 bitrate=N/A speed=20.1x    frame=23437 fps=483 q=-0.0 size=N/A time=00:16:17.51 bitrate=N/A speed=20.2x    frame=23680 fps=483 q=-0.0 size=N/A time=00:16:27.65 bitrate=N/A speed=20.2x    frame=23904 fps=483 q=-0.0 size=N/A time=00:16:36.99 bitrate=N/A speed=20.1x    frame=24150 fps=483 q=-0.0 size=N/A time=00:16:47.25 bitrate=N/A speed=20.1x    frame=24426 fps=483 q=-0.0 size=N/A time=00:16:58.76 bitrate=N/A speed=20.2x    frame=24715 fps=484 q=-0.0 size=N/A time=00:17:10.82 bitrate=N/A speed=20.2x    frame=24990 fps=484 q=-0.0 size=N/A time=00:17:22.29 bitrate=N/A speed=20.2x    frame=25256 fps=485 q=-0.0 size=N/A time=00:17:33.38 bitrate=N/A speed=20.2x    frame=25466 fps=484 q=-0.0 size=N/A time=00:17:42.14 bitrate=N/A speed=20.2x    frame=25744 fps=485 q=-0.0 size=N/A time=00:17:53.73 bitrate=N/A speed=20.2x    frame=26010 fps=485 q=-0.0 size=N/A time=00:18:04.83 bitrate=N/A speed=20.2x    frame=26287 fps=485 q=-0.0 size=N/A time=00:18:16.38 bitrate=N/A speed=20.2x    frame=26564 fps=486 q=-0.0 size=N/A time=00:18:27.94 bitrate=N/A speed=20.3x    frame=26839 fps=486 q=-0.0 size=N/A time=00:18:39.40 bitrate=N/A speed=20.3x    frame=27113 fps=487 q=-0.0 size=N/A time=00:18:50.83 bitrate=N/A speed=20.3x    frame=27347 fps=486 q=-0.0 size=N/A time=00:19:00.59 bitrate=N/A speed=20.3x    frame=27622 fps=487 q=-0.0 size=N/A time=00:19:12.06 bitrate=N/A speed=20.3x    frame=27893 fps=487 q=-0.0 size=N/A time=00:19:23.37 bitrate=N/A speed=20.3x    frame=28156 fps=487 q=-0.0 size=N/A time=00:19:34.33 bitrate=N/A speed=20.3x    frame=28420 fps=488 q=-0.0 size=N/A time=00:19:45.35 bitrate=N/A speed=20.3x    frame=28692 fps=488 q=-0.0 size=N/A time=00:19:56.69 bitrate=N/A speed=20.3x    frame=28963 fps=488 q=-0.0 size=N/A time=00:20:07.99 bitrate=N/A speed=20.4x    frame=29210 fps=488 q=-0.0 size=N/A time=00:20:18.30 bitrate=N/A speed=20.4x    frame=29465 fps=488 q=-0.0 size=N/A time=00:20:28.93 bitrate=N/A speed=20.4x    frame=29726 fps=488 q=-0.0 size=N/A time=00:20:39.82 bitrate=N/A speed=20.4x    frame=30001 fps=489 q=-0.0 size=N/A time=00:20:51.29 bitrate=N/A speed=20.4x    frame=30259 fps=489 q=-0.0 size=N/A time=00:21:02.05 bitrate=N/A speed=20.4x    frame=30493 fps=489 q=-0.0 size=N/A time=00:21:11.81 bitrate=N/A speed=20.4x    frame=30776 fps=489 q=-0.0 size=N/A time=00:21:23.61 bitrate=N/A speed=20.4x    frame=31027 fps=489 q=-0.0 size=N/A time=00:21:34.08 bitrate=N/A speed=20.4x    frame=31286 fps=489 q=-0.0 size=N/A time=00:21:44.88 bitrate=N/A speed=20.4x    frame=31552 fps=489 q=-0.0 size=N/A time=00:21:55.98 bitrate=N/A speed=20.4x    frame=31757 fps=489 q=-0.0 size=N/A time=00:22:04.53 bitrate=N/A speed=20.4x    frame=31924 fps=487 q=-0.0 size=N/A time=00:22:11.49 bitrate=N/A speed=20.3x    frame=32129 fps=487 q=-0.0 size=N/A time=00:22:20.04 bitrate=N/A speed=20.3x    frame=32328 fps=486 q=-0.0 size=N/A time=00:22:28.34 bitrate=N/A speed=20.3x    frame=32526 fps=485 q=-0.0 size=N/A time=00:22:36.60 bitrate=N/A speed=20.2x    frame=32715 fps=484 q=-0.0 size=N/A time=00:22:44.48 bitrate=N/A speed=20.2x    frame=32919 fps=483 q=-0.0 size=N/A time=00:22:52.99 bitrate=N/A speed=20.2x    frame=33121 fps=483 q=-0.0 size=N/A time=00:23:01.42 bitrate=N/A speed=20.1x    frame=33311 fps=482 q=-0.0 size=N/A time=00:23:09.34 bitrate=N/A speed=20.1x    frame=33530 fps=481 q=-0.0 size=N/A time=00:23:18.48 bitrate=N/A speed=20.1x    frame=33719 fps=481 q=-0.0 size=N/A time=00:23:26.36 bitrate=N/A speed=  20x    frame=33918 fps=480 q=-0.0 size=N/A time=00:23:34.66 bitrate=N/A speed=  20x    frame=34161 fps=480 q=-0.0 size=N/A time=00:23:44.79 bitrate=N/A speed=  20x    [Parsed_ssim_10 @ 000002e0e235a240] SSIM Y:0.992385 (21.183457) U:0.994037 (22.245466) V:0.994263 (22.412777) All:0.992973 (21.532584)
[out#0/null @ 000002e0e1e950c0] video:14696KiB audio:267812KiB subtitle:0KiB other streams:0KiB global headers:0KiB muxing overhead: unknown
frame=34202 fps=480 q=-0.0 Lsize=N/A time=00:23:46.50 bitrate=N/A speed=  20x    
